<svg width="79" height="23" viewBox="0 0 79 23" fill="none" xmlns="http://www.w3.org/2000/svg">
<path d="M12.5248 0.300781C12.4581 0.884114 12.4081 1.45078 12.3748 2.00078C12.3581 2.55078 12.3498 2.96745 12.3498 3.25078C12.3498 3.55078 12.3581 3.84245 12.3748 4.12578C12.3915 4.39245 12.4081 4.61745 12.4248 4.80078H11.8498C11.7498 3.81745 11.6081 3.04245 11.4248 2.47578C11.2415 1.89245 10.9248 1.48411 10.4748 1.25078C10.0415 1.00078 9.38314 0.87578 8.49981 0.87578H6.42481C5.85814 0.87578 5.4248 0.92578 5.1248 1.02578C4.84147 1.10911 4.64981 1.30078 4.54981 1.60078C4.4498 1.88411 4.3998 2.33411 4.3998 2.95078V15.3508C4.3998 15.9508 4.4498 16.4008 4.54981 16.7008C4.64981 17.0008 4.84147 17.2008 5.1248 17.3008C5.4248 17.3841 5.85814 17.4258 6.42481 17.4258H8.2498C9.2998 17.4258 10.0915 17.2841 10.6248 17.0008C11.1748 16.7174 11.5665 16.2591 11.7998 15.6258C12.0498 14.9758 12.2331 14.1008 12.3498 13.0008H12.9248C12.8748 13.4508 12.8498 14.0508 12.8498 14.8008C12.8498 15.1174 12.8581 15.5758 12.8748 16.1758C12.9081 16.7591 12.9581 17.3674 13.0248 18.0008C12.1748 17.9674 11.2165 17.9508 10.1498 17.9508C9.08314 17.9341 8.13314 17.9258 7.29981 17.9258C6.93314 17.9258 6.45814 17.9258 5.8748 17.9258C5.30814 17.9258 4.69147 17.9341 4.0248 17.9508C3.35814 17.9508 2.68314 17.9591 1.9998 17.9758C1.31647 17.9758 0.666471 17.9841 0.0498047 18.0008V17.5008C0.616471 17.4674 1.04147 17.4008 1.3248 17.3008C1.6248 17.2008 1.8248 17.0008 1.9248 16.7008C2.0248 16.4008 2.0748 15.9508 2.0748 15.3508V2.95078C2.0748 2.33411 2.0248 1.88411 1.9248 1.60078C1.8248 1.30078 1.6248 1.10078 1.3248 1.00078C1.04147 0.884114 0.616471 0.817447 0.0498047 0.800781V0.300781C0.666471 0.317448 1.31647 0.334114 1.9998 0.350781C2.68314 0.350781 3.35814 0.359114 4.0248 0.37578C4.69147 0.37578 5.30814 0.37578 5.8748 0.37578C6.45814 0.37578 6.93314 0.37578 7.29981 0.37578C8.06647 0.37578 8.93314 0.37578 9.89981 0.37578C10.8831 0.359114 11.7581 0.334114 12.5248 0.300781ZM8.2248 8.85078C8.2248 8.85078 8.2248 8.93411 8.2248 9.10078C8.2248 9.26745 8.2248 9.35078 8.2248 9.35078H3.6498C3.6498 9.35078 3.6498 9.26745 3.6498 9.10078C3.6498 8.93411 3.6498 8.85078 3.6498 8.85078H8.2248ZM8.94981 5.55078C8.88314 6.50078 8.8498 7.22578 8.8498 7.72578C8.86647 8.22578 8.8748 8.68411 8.8748 9.10078C8.8748 9.51745 8.88314 9.97578 8.89981 10.4758C8.91647 10.9758 8.95814 11.7008 9.02481 12.6508H8.44981C8.38314 12.1174 8.2998 11.6008 8.19981 11.1008C8.11647 10.5841 7.91647 10.1674 7.5998 9.85078C7.2998 9.51745 6.78314 9.35078 6.0498 9.35078V8.85078C6.5998 8.85078 7.01647 8.74245 7.29981 8.52578C7.59981 8.29245 7.81647 8.00078 7.9498 7.65078C8.08314 7.30078 8.1748 6.94245 8.2248 6.57578C8.27481 6.19245 8.32481 5.85078 8.37481 5.55078H8.94981Z" fill="#312C2B"/>
<path d="M26.0842 5.12578V5.62578C25.7675 5.65911 25.4758 5.80078 25.2092 6.05078C24.9425 6.30078 24.6925 6.74245 24.4592 7.37578L20.3592 18.1258H19.9342L15.3342 7.05078C15.0175 6.40078 14.7008 6.00911 14.3842 5.87578C14.0842 5.72578 13.8342 5.65078 13.6342 5.65078V5.12578C14.0008 5.17578 14.3842 5.21745 14.7842 5.25078C15.1842 5.26745 15.6175 5.27578 16.0842 5.27578C16.6008 5.27578 17.1425 5.25911 17.7092 5.22578C18.2925 5.19245 18.8342 5.15911 19.3342 5.12578V5.65078C18.9175 5.65078 18.5425 5.68411 18.2092 5.75078C17.8925 5.80078 17.6925 5.97578 17.6092 6.27578C17.5258 6.55911 17.6258 7.05078 17.9092 7.75078L20.9842 15.3758L20.8342 15.4258L23.6842 7.97578C23.9008 7.42578 23.9842 6.99245 23.9342 6.67578C23.9008 6.34245 23.7342 6.09245 23.4342 5.92578C23.1342 5.75911 22.6842 5.65911 22.0842 5.62578V5.12578C22.3842 5.14245 22.6425 5.15911 22.8592 5.17578C23.0758 5.17578 23.2842 5.18411 23.4842 5.20078C23.7008 5.20078 23.9342 5.20078 24.1842 5.20078C24.5675 5.20078 24.9092 5.19245 25.2092 5.17578C25.5258 5.15911 25.8175 5.14245 26.0842 5.12578ZM20.3592 18.1258L19.5092 20.3008C19.3425 20.7174 19.1675 21.0674 18.9842 21.3508C18.8175 21.6341 18.6342 21.8674 18.4342 22.0508C18.1675 22.3008 17.8508 22.4674 17.4842 22.5508C17.1175 22.6508 16.7842 22.7008 16.4842 22.7008C16.1675 22.7008 15.8758 22.6424 15.6092 22.5258C15.3592 22.4091 15.1592 22.2341 15.0092 22.0008C14.8592 21.7841 14.7842 21.5174 14.7842 21.2008C14.7842 20.8008 14.9008 20.4758 15.1342 20.2258C15.3675 19.9924 15.6925 19.8758 16.1092 19.8758C16.4592 19.8758 16.7592 19.9758 17.0092 20.1758C17.2592 20.3758 17.3842 20.6674 17.3842 21.0508C17.3842 21.3341 17.3175 21.5674 17.1842 21.7508C17.0508 21.9341 16.8925 22.0758 16.7092 22.1758C16.7425 22.1924 16.7675 22.2008 16.7842 22.2008C16.8175 22.2008 16.8425 22.2008 16.8592 22.2008C17.3092 22.2008 17.7092 22.0424 18.0592 21.7258C18.4092 21.4258 18.7175 20.9341 18.9842 20.2508L19.8842 17.9258L20.3592 18.1258Z" fill="#312C2B"/>
<path d="M32.4121 4.77578C33.8788 4.77578 35.0204 5.22578 35.8371 6.12578C36.6704 7.00911 37.0871 8.39245 37.0871 10.2758H28.2621L28.2371 9.80078H34.6871C34.7204 8.98411 34.6538 8.23411 34.4871 7.55078C34.3204 6.85078 34.0538 6.29245 33.6871 5.87578C33.3371 5.45911 32.8788 5.25078 32.3121 5.25078C31.5454 5.25078 30.8621 5.63411 30.2621 6.40078C29.6788 7.16745 29.3288 8.38412 29.2121 10.0508L29.2871 10.1508C29.2538 10.4008 29.2288 10.6758 29.2121 10.9758C29.1954 11.2758 29.1871 11.5758 29.1871 11.8758C29.1871 13.0091 29.3704 13.9841 29.7371 14.8008C30.1038 15.6174 30.5788 16.2424 31.1621 16.6758C31.7621 17.0924 32.3788 17.3008 33.0121 17.3008C33.5121 17.3008 33.9871 17.2258 34.4371 17.0758C34.8871 16.9091 35.3038 16.6424 35.6871 16.2758C36.0704 15.9091 36.4038 15.4174 36.6871 14.8008L37.1871 15.0008C37.0038 15.5508 36.7038 16.0841 36.2871 16.6008C35.8704 17.1174 35.3454 17.5424 34.7121 17.8758C34.0788 18.1924 33.3454 18.3508 32.5121 18.3508C31.3121 18.3508 30.2788 18.0758 29.4121 17.5258C28.5621 16.9758 27.9038 16.2174 27.4371 15.2508C26.9871 14.2674 26.7621 13.1424 26.7621 11.8758C26.7621 10.4091 26.9954 9.15078 27.4621 8.10078C27.9288 7.03411 28.5871 6.21745 29.4371 5.65078C30.2871 5.06745 31.2788 4.77578 32.4121 4.77578Z" fill="#312C2B"/>
<path d="M45.0127 0.300781V0.800781C44.446 0.817447 44.0127 0.884114 43.7127 1.00078C43.4294 1.10078 43.2377 1.30078 43.1377 1.60078C43.0377 1.88411 42.9877 2.33411 42.9877 2.95078V15.3508C42.9877 15.9508 43.0377 16.4008 43.1377 16.7008C43.2377 17.0008 43.4294 17.2008 43.7127 17.3008C44.0127 17.3841 44.446 17.4258 45.0127 17.4258H46.8377C47.621 17.4258 48.2544 17.3424 48.7377 17.1758C49.2377 17.0091 49.6294 16.7508 49.9127 16.4008C50.2127 16.0341 50.4377 15.5508 50.5877 14.9508C50.7377 14.3508 50.8544 13.6174 50.9377 12.7508H51.5127C51.4627 13.2674 51.4377 13.9508 51.4377 14.8008C51.4377 15.1174 51.446 15.5758 51.4627 16.1758C51.496 16.7591 51.546 17.3674 51.6127 18.0008C50.7627 17.9674 49.8044 17.9508 48.7377 17.9508C47.671 17.9341 46.721 17.9258 45.8877 17.9258C45.521 17.9258 45.046 17.9258 44.4627 17.9258C43.896 17.9258 43.2794 17.9341 42.6127 17.9508C41.946 17.9508 41.271 17.9591 40.5877 17.9758C39.9044 17.9758 39.2544 17.9841 38.6377 18.0008V17.5008C39.2044 17.4674 39.6294 17.4008 39.9127 17.3008C40.2127 17.2008 40.4127 17.0008 40.5127 16.7008C40.6127 16.4008 40.6627 15.9508 40.6627 15.3508V2.95078C40.6627 2.33411 40.6127 1.88411 40.5127 1.60078C40.4127 1.30078 40.2127 1.10078 39.9127 1.00078C39.6294 0.884114 39.2044 0.817447 38.6377 0.800781V0.300781C38.9877 0.317448 39.446 0.334114 40.0127 0.350781C40.5794 0.367447 41.1877 0.37578 41.8377 0.37578C42.421 0.37578 42.996 0.367447 43.5627 0.350781C44.146 0.334114 44.6294 0.317448 45.0127 0.300781Z" fill="#312C2B"/>
<path d="M63.86 4.85078V15.3008C63.86 16.0508 63.9933 16.6091 64.26 16.9758C64.5433 17.3258 65.0433 17.5008 65.76 17.5008V18.0258C65.2433 17.9758 64.7266 17.9508 64.21 17.9508C63.7266 17.9508 63.26 17.9758 62.81 18.0258C62.3766 18.0758 61.9766 18.1674 61.61 18.3008V15.3508C61.1933 16.4341 60.6016 17.2091 59.835 17.6758C59.085 18.1258 58.31 18.3508 57.51 18.3508C56.9266 18.3508 56.4183 18.2674 55.985 18.1008C55.5516 17.9341 55.1933 17.7008 54.91 17.4008C54.5933 17.0674 54.3766 16.6341 54.26 16.1008C54.1433 15.5674 54.085 14.9091 54.085 14.1258V7.85078C54.085 7.10078 53.9516 6.55078 53.685 6.20078C53.4183 5.83411 52.9183 5.65078 52.185 5.65078V5.12578C52.7183 5.17578 53.235 5.20078 53.735 5.20078C54.2183 5.20078 54.6766 5.17578 55.11 5.12578C55.56 5.05911 55.9683 4.96745 56.335 4.85078V14.6758C56.335 15.1924 56.3683 15.6674 56.435 16.1008C56.5016 16.5341 56.6683 16.8841 56.935 17.1508C57.2016 17.4174 57.635 17.5508 58.235 17.5508C58.885 17.5508 59.46 17.3508 59.96 16.9508C60.4766 16.5508 60.8766 16.0091 61.16 15.3258C61.46 14.6424 61.61 13.8758 61.61 13.0258V7.85078C61.61 7.10078 61.4766 6.55078 61.21 6.20078C60.9433 5.83411 60.4433 5.65078 59.71 5.65078V5.12578C60.2433 5.17578 60.76 5.20078 61.26 5.20078C61.7433 5.20078 62.2016 5.17578 62.635 5.12578C63.085 5.05911 63.4933 4.96745 63.86 4.85078Z" fill="#312C2B"/>
<path d="M71.1113 5.12578V5.65078C70.7947 5.65078 70.528 5.72578 70.3113 5.87578C70.0947 6.02578 70.0697 6.23411 70.2363 6.50078L76.9113 16.2258C77.1947 16.6424 77.4447 16.9424 77.6613 17.1258C77.878 17.2924 78.1447 17.4091 78.4613 17.4758V18.0008C78.2947 17.9841 78.0363 17.9674 77.6863 17.9508C77.353 17.9174 77.0197 17.9008 76.6863 17.9008C76.1697 17.9008 75.6113 17.9174 75.0113 17.9508C74.428 17.9674 74.003 17.9841 73.7363 18.0008V17.4758C74.0697 17.4758 74.3447 17.4008 74.5613 17.2508C74.778 17.0841 74.7947 16.8758 74.6113 16.6258L67.9363 6.90078C67.603 6.41745 67.3363 6.10078 67.1363 5.95078C66.9363 5.78411 66.6863 5.68411 66.3863 5.65078V5.12578C66.553 5.14245 66.8113 5.16745 67.1613 5.20078C67.5113 5.21745 67.8447 5.22578 68.1613 5.22578C68.6947 5.22578 69.253 5.21745 69.8363 5.20078C70.4197 5.16745 70.8447 5.14245 71.1113 5.12578ZM71.7863 11.4758C71.7863 11.4758 71.803 11.5341 71.8363 11.6508C71.8697 11.7508 71.903 11.8591 71.9363 11.9758C71.9863 12.0924 72.0113 12.1508 72.0113 12.1508L69.9363 14.8508C69.503 15.4174 69.2697 15.8924 69.2363 16.2758C69.2197 16.6591 69.378 16.9508 69.7113 17.1508C70.0447 17.3341 70.503 17.4508 71.0863 17.5008V18.0008C70.803 17.9841 70.4863 17.9758 70.1363 17.9758C69.7863 17.9591 69.4447 17.9508 69.1113 17.9508C68.7947 17.9341 68.503 17.9258 68.2363 17.9258C67.853 17.9258 67.503 17.9341 67.1863 17.9508C66.8863 17.9508 66.603 17.9674 66.3363 18.0008V17.5008C66.653 17.4674 66.978 17.3258 67.3113 17.0758C67.6613 16.8091 68.0697 16.3674 68.5363 15.7508L71.7863 11.4758ZM77.9613 5.12578V5.62578C77.6447 5.65911 77.2947 5.82578 76.9113 6.12578C76.5447 6.40911 76.1613 6.82578 75.7613 7.37578L72.8863 11.3508C72.8863 11.3508 72.8697 11.3008 72.8363 11.2008C72.803 11.0841 72.7697 10.9758 72.7363 10.8758C72.703 10.7591 72.6863 10.7008 72.6863 10.7008L74.6363 7.97578C75.003 7.45911 75.2363 7.03411 75.3363 6.70078C75.4363 6.36745 75.378 6.11745 75.1613 5.95078C74.9613 5.76745 74.5613 5.65911 73.9613 5.62578V5.12578C74.3947 5.14245 74.753 5.15911 75.0363 5.17578C75.3363 5.19245 75.678 5.20078 76.0613 5.20078C76.4447 5.20078 76.7863 5.19245 77.0863 5.17578C77.403 5.15911 77.6947 5.14245 77.9613 5.12578Z" fill="#312C2B"/>
</svg>

